#N canvas 381 22 772 739 10;
#X obj 205 -101 noise~;
#X obj 180 -34 nbx 5 14 -1e+37 1e+37 0 0 empty empty empty 0 -8 0 10
-262144 -1 -1 0 256;
#X msg 187 -8 angle \$1;
#X obj 490 -131 loadbang;
#X obj 511 -6 *~;
#X obj 363 -76 snapshot~;
#X obj 369 -40 nbx 5 14 -1e+37 1e+37 0 0 empty empty empty 0 -8 0 10
-262144 -1 -1 1.35904 256;
#X obj 362 -106 metro 10;
#X obj 362 -133 tgl 15 0 empty empty empty 17 7 0 10 -262144 -1 -1
1 1;
#X obj 526 -35 hoa.pi 2;
#X obj 602 -52 bng 15 250 50 0 empty empty empty 17 7 0 10 -262144
-1 -1;
#X obj 511 -82 phasor~ 0.3;
#X obj 23 26 encoder~ ------------------;
#X obj 20 328 decoder~ 4 10 ----------------------;
#X obj 22 373 hoa.meter~ @patching_rect [ 22 373 225 225 ] @size [
225 225 ] @fontname [ helvetica ] @fontweight [ normal ] @fontslant
[ regular ] @fontsize [ 11 ] @vectors [ 1 ] @loudspeakers [ 10 ] @angles
[ 0 36 72 108 144 180 216 252 288 324 0 0 0 0 0 0 0 0 0 0 0 0 0 0 0
0 0 0 0 0 0 0 0 0 0 0 0 0 0 0 0 0 0 0 0 0 0 0 0 0 0 0 0 0 0 0 0 0 0
0 0 0 0 0 ] @offset [ 0 ] @rotation [ 1 ] @interval [ 50 ] @bgcolor
[ 0.55 0.55 0.55 1 ] @mbgcolor [ 0.4 0.4 0.4 1 ] @bordercolor [ 0.25
0.25 0.25 1 ] @coldcolor [ 0 0.6 0 0.8 ] @tepidcolor [ 0.6 0.73 0 0.8
] @warmcolor [ 0.85 0.85 0 0.8 ] @hotcolor [ 1 0.6 0 0.8 ] @overcolor
[ 1 0 0 0.8 ] @energycolor [ 0 0 1 0.8 ] @velocitycolor [ 1 0 0 0.8
];
#X obj 11 65 hoa.scope~ @patching_rect [ 11 65 250 250 ] @size [ 250
250 ] @fontname [ helvetica ] @fontweight [ normal ] @fontslant [ regular
] @fontsize [ 11 ] @order [ 4 ] @gain [ 1 ] @interval [ 100 ] @drawcircle
[ 1 ] @drawangles [ 1 ] @drawcontrib [ 1 ] @bgcolor [ 0.76 0.76 0.76
1 ] @bdcolor [ 0.7 0.7 0.7 1 ] @txcolor [ 0 0 0 7 ] @phcolor [ 1 0
0 1 ] @nhcolor [ 0 0 1 1 ];
#X obj 373 19 hoa.encoder~ 4 ------------;
#X obj 337 359 hoa.meter~ @patching_rect [ 337 359 225 225 ] @size
[ 225 225 ] @fontname [ helvetica ] @fontweight [ normal ] @fontslant
[ regular ] @fontsize [ 11 ] @vectors [ 1 ] @loudspeakers [ 10 ] @angles
[ 0 36 72 108 144 180 216 252 288 324 0 0 0 0 0 0 0 0 0 0 0 0 0 0 0
0 0 0 0 0 0 0 0 0 0 0 0 0 0 0 0 0 0 0 0 0 0 0 0 0 0 0 0 0 0 0 0 0 0
0 0 0 0 0 ] @offset [ 0 ] @rotation [ 1 ] @interval [ 50 ] @bgcolor
[ 0.55 0.55 0.55 1 ] @mbgcolor [ 0.4 0.4 0.4 1 ] @bordercolor [ 0.25
0.25 0.25 1 ] @coldcolor [ 0 0.6 0 0.8 ] @tepidcolor [ 0.6 0.73 0 0.8
] @warmcolor [ 0.85 0.85 0 0.8 ] @hotcolor [ 1 0.6 0 0.8 ] @overcolor
[ 1 0 0 0.8 ] @energycolor [ 0 0 1 0.8 ] @velocitycolor [ 1 0 0 0.8
];
#X obj 326 64 hoa.scope~ @patching_rect [ 326 64 250 250 ] @size [
250 250 ] @fontname [ helvetica ] @fontweight [ normal ] @fontslant
[ regular ] @fontsize [ 11 ] @order [ 4 ] @gain [ 1 ] @interval [ 100
] @drawcircle [ 1 ] @drawangles [ 1 ] @drawcontrib [ 1 ] @bgcolor [
0.76 0.76 0.76 1 ] @bdcolor [ 0.7 0.7 0.7 1 ] @txcolor [ 0 0 0 7 ]
@phcolor [ 1 0 0 1 ] @nhcolor [ 0 0 1 1 ];
#X obj 359 322 hoa.decoder~ 4 0 10 --------------;
#X connect 0 0 12 0;
#X connect 0 0 16 0;
#X connect 1 0 2 0;
#X connect 2 0 12 0;
#X connect 3 0 9 0;
#X connect 3 0 8 0;
#X connect 4 0 5 0;
#X connect 4 0 16 1;
#X connect 5 0 6 0;
#X connect 6 0 2 0;
#X connect 7 0 5 0;
#X connect 8 0 7 0;
#X connect 9 0 4 1;
#X connect 10 0 9 0;
#X connect 11 0 4 0;
#X connect 12 0 13 0;
#X connect 12 0 15 0;
#X connect 12 1 13 1;
#X connect 12 1 15 1;
#X connect 12 2 13 2;
#X connect 12 2 15 2;
#X connect 12 3 13 3;
#X connect 12 3 15 3;
#X connect 12 4 13 4;
#X connect 12 4 15 4;
#X connect 12 5 13 5;
#X connect 12 5 15 5;
#X connect 12 6 13 6;
#X connect 12 6 15 6;
#X connect 12 7 13 7;
#X connect 12 7 15 7;
#X connect 12 8 13 8;
#X connect 12 8 15 8;
#X connect 13 0 14 0;
#X connect 13 1 14 1;
#X connect 13 2 14 2;
#X connect 13 3 14 3;
#X connect 13 4 14 4;
#X connect 13 5 14 5;
#X connect 13 6 14 6;
#X connect 13 7 14 7;
#X connect 13 8 14 8;
#X connect 13 9 14 9;
#X connect 16 0 18 0;
#X connect 16 0 19 0;
#X connect 16 1 18 1;
#X connect 16 1 19 1;
#X connect 16 2 18 2;
#X connect 16 2 19 2;
#X connect 16 3 18 3;
#X connect 16 3 19 3;
#X connect 16 4 18 4;
#X connect 16 4 19 4;
#X connect 16 5 18 5;
#X connect 16 5 19 5;
#X connect 16 6 18 6;
#X connect 16 6 19 6;
#X connect 16 7 18 7;
#X connect 16 7 19 7;
#X connect 16 8 18 8;
#X connect 16 8 19 8;
#X connect 19 0 17 0;
#X connect 19 1 17 1;
#X connect 19 2 17 2;
#X connect 19 3 17 3;
#X connect 19 4 17 4;
#X connect 19 5 17 5;
#X connect 19 6 17 6;
#X connect 19 7 17 7;
#X connect 19 8 17 8;
#X connect 19 9 17 9;
