#N canvas 381 22 772 739 10;
#X obj 205 -101 noise~;
#X obj 180 -34 nbx 5 14 -1e+37 1e+37 0 0 empty empty empty 0 -8 0 10
-262144 -1 -1 0 256;
#X msg 187 -8 angle \$1;
#X obj 490 -131 loadbang;
#X obj 511 -6 *~;
#X obj 363 -76 snapshot~;
#X obj 369 -40 nbx 5 14 -1e+37 1e+37 0 0 empty empty empty 0 -8 0 10
-262144 -1 -1 5.06875 256;
#X obj 362 -106 metro 10;
#X obj 362 -133 tgl 15 0 empty empty empty 17 7 0 10 -262144 -1 -1
1 1;
#X obj 526 -35 hoa.pi 2;
#X obj 602 -52 bng 15 250 50 0 empty empty empty 17 7 0 10 -262144
-1 -1;
#X obj 511 -82 phasor~ 0.3;
#X obj 373 19 hoa.encoder~ 4 ------------;
#X obj 353 129 hoa.decoder~ 4 0 10 --------------;
#X obj 23 26 encoder~ ------------------;
#X obj 14 135 decoder~ 4 10 ----------------------;
#X connect 0 0 12 0;
#X connect 0 0 14 0;
#X connect 1 0 2 0;
#X connect 2 0 14 0;
#X connect 3 0 9 0;
#X connect 3 0 8 0;
#X connect 4 0 5 0;
#X connect 4 0 12 1;
#X connect 5 0 6 0;
#X connect 6 0 2 0;
#X connect 7 0 5 0;
#X connect 8 0 7 0;
#X connect 9 0 4 1;
#X connect 10 0 9 0;
#X connect 11 0 4 0;
#X connect 12 0 13 0;
#X connect 12 1 13 1;
#X connect 12 2 13 2;
#X connect 12 3 13 3;
#X connect 12 4 13 4;
#X connect 12 5 13 5;
#X connect 12 6 13 6;
#X connect 12 7 13 7;
#X connect 12 8 13 8;
#X connect 14 0 15 0;
#X connect 14 1 15 1;
#X connect 14 2 15 2;
#X connect 14 3 15 3;
#X connect 14 4 15 4;
#X connect 14 5 15 5;
#X connect 14 6 15 6;
#X connect 14 7 15 7;
#X connect 14 8 15 8;
